<?xml version="1.0" encoding="UTF-8" standalone="no"?>
<svg
   version="1.1"
   viewBox="0 0 540.09315 540.0224"
   fill="none"
   stroke="none"
   stroke-linecap="square"
   stroke-miterlimit="10"
   id="svg19"
   sodipodi:docname="Logo.svg"
   width="540.09314"
   height="540.0224"
   inkscape:version="1.1.2 (b8e25be833, 2022-02-05)"
   inkscape:export-filename="C:\Users\ivarb\Documents\GitHub\UnityAutoAtlas\Assets\Logo.png"
   inkscape:export-xdpi="300.04001"
   inkscape:export-ydpi="300.04001"
   xmlns:inkscape="http://www.inkscape.org/namespaces/inkscape"
   xmlns:sodipodi="http://sodipodi.sourceforge.net/DTD/sodipodi-0.dtd"
   xmlns="http://www.w3.org/2000/svg"
   xmlns:svg="http://www.w3.org/2000/svg">
  <defs
     id="defs23" />
  <sodipodi:namedview
     id="namedview21"
     pagecolor="#ffffff"
     bordercolor="#999999"
     borderopacity="1"
     inkscape:pageshadow="0"
     inkscape:pageopacity="0"
     inkscape:pagecheckerboard="true"
     showgrid="false"
     fit-margin-top="0"
     fit-margin-left="0"
     fit-margin-right="0"
     fit-margin-bottom="0"
     inkscape:zoom="0.4546875"
     inkscape:cx="240.82474"
     inkscape:cy="204.53608"
     inkscape:window-width="2560"
     inkscape:window-height="1377"
     inkscape:window-x="2552"
     inkscape:window-y="-8"
     inkscape:window-maximized="1"
     inkscape:current-layer="g17" />
  <clipPath
     id="g14317e94fd3_0_0.0">
    <path
       d="M 0,0 H 540.0945 V 960 H 0 Z"
       clip-rule="nonzero"
       id="path2" />
  </clipPath>
  <g
     clip-path="url(#g14317e94fd3_0_0.0)"
     id="g17"
     transform="translate(0,-82.121843)">
    <path
       fill="#000000"
       fill-opacity="0"
       d="m -261.9029,209.70866 h 10.26772 v 42.01575 h -10.26772 z"
       fill-rule="evenodd"
       id="path7" />
    <path
       fill="#5f7d95"
       d="m 266.41943,112.66212 c 131.03809,0 238.74252,106.26725 238.74252,237.29938 0,46.57278 -13.12228,91.71326 -37.8421,129.55365 l 1.43237,-7.30011 c 1.47858,-4.34308 0,-10.1647 -2.91092,-14.55399 -4.34329,-2.91079 -10.16516,-4.34311 -14.55466,-4.34311 l -5.82186,1.43232 c 17.46557,-30.54029 27.67694,-66.94837 27.67694,-103.35645 0,-113.52115 -93.19599,-206.66669 -206.72229,-206.66669 -29.1093,0 -58.2186,5.8216 -82.98462,18.89708 -7.25423,2.9108 -11.64373,11.64321 -7.25423,18.9433 l 7.25423,17.46478 -58.21862,8.73239 -18.89795,1.43232 c 2.91094,-5.82161 18.89795,-66.94837 20.37652,-72.76997 l 4.3433,4.38931 c 2.86472,2.81839 6.93079,5.03613 11.45889,5.03613 2.40268,0 4.94397,-0.60063 7.48526,-2.12533 36.36353,-21.8541 77.11655,-32.065 116.43721,-32.065 z m 17.46561,65.51608 c 82.98462,7.30009 148.50366,74.24845 155.75787,155.75082 h -14.55466 c -8.73279,0 -15.987,7.30007 -15.987,17.46478 0,8.73239 7.25421,16.0325 15.987,16.0325 h 14.55466 c -2.91092,34.92956 -15.987,68.42685 -39.27445,96.05633 l -77.16278,14.55399 c -4.38949,1.47852 -8.73279,4.38931 -10.21136,8.73239 -1.43235,5.8216 -1.43235,11.64319 1.47857,14.55402 l 8.73279,14.55398 c -11.64371,4.38929 -24.76599,7.30011 -37.8421,7.30011 v -14.55401 c 0,-8.73239 -7.30042,-16.0325 -16.0332,-16.0325 -8.73279,0 -15.98703,7.30011 -15.98703,16.0325 v 14.55401 C 168.88015,515.87701 103.40731,448.92865 96.106897,367.4263 h 14.554653 c 8.73279,0 16.03322,-7.30011 16.03322,-16.0325 0,-10.1647 -7.30043,-17.46478 -16.03322,-17.46478 H 96.106897 c 4.389493,-33.45108 16.033213,-68.38068 40.753033,-96.05637 l 69.86233,-8.73239 c 5.82187,0 8.73279,-4.3893 11.64372,-7.30009 1.47858,-4.3431 1.47858,-8.73239 0,-14.554 l -10.16514,-20.37558 c 13.07608,-5.8216 27.63074,-7.25389 42.2316,-8.73239 v 14.55398 c 0,8.73239 7.25421,16.03249 15.987,16.03249 10.21136,0 17.4656,-7.3001 17.4656,-16.03249 z m -209.633223,37.84037 -2.910934,11.64319 c -2.910927,4.3893 0,10.21089 2.910934,14.55399 2.910927,2.91081 8.732788,4.38931 14.554649,4.38931 H 91.7174 c -17.465584,32.01878 -27.630745,68.42686 -27.630745,106.26723 0,112.08884 91.717425,205.2344 205.243735,205.2344 29.10931,0 58.21859,-5.82159 85.89554,-17.46478 2.91095,-2.91083 7.25424,-5.8216 8.73281,-10.21094 1.43235,-2.91077 0,-8.73236 -1.47857,-11.64319 l -7.25424,-11.64316 80.0737,-15.98629 v 0 c -4.3895,15.98629 -16.03321,61.12677 -18.94416,75.68072 l -11.6437,-8.73236 c -2.35648,-3.14185 -5.49845,-4.5741 -8.8714,-4.5741 -2.86475,0 -5.91428,1.10883 -8.59418,3.09558 -36.40976,21.85413 -78.59515,32.06501 -117.9158,32.06501 -130.99188,0 -238.74252,-106.26724 -238.74252,-237.29938 0,-49.48358 14.554653,-94.62406 43.663963,-135.37523 z M 266.41944,82.121843 c -40.75302,0 -82.98462,10.164688 -120.82672,30.540277 L 131.03807,96.675829 c -3.28057,-3.280418 -7.34664,-4.89753 -11.04306,-4.89753 -1.24754,0 -2.40267,0.184815 -3.51159,0.508233 -5.82186,1.4785 -10.16516,5.821594 -11.64372,11.643198 L 91.717403,149.07021 C 32.066425,200.03227 0.0461833,274.28073 0.0461833,351.39381 c 0,69.90536 27.6307397,139.76453 80.0274997,190.68042 50.964397,50.96203 117.915797,80.07001 190.735257,80.07001 42.1854,0 85.84937,-11.64319 123.73767,-30.54029 l 20.37653,17.46485 c 2.17163,3.28039 6.00668,4.89752 10.21136,4.89752 1.43235,0 2.86472,-0.18481 4.3433,-0.55444 5.82183,-2.91083 8.73278,-5.8216 10.16513,-11.64319 l 13.12231,-52.39441 C 508.07292,498.41221 540.09315,427.12077 540.09315,352.8723 538.66078,202.94309 416.35548,82.121869 266.41945,82.121869 Z"
       fill-rule="evenodd"
       id="path9"
       style="fill:#232323;fill-opacity:1" />
    <path
       fill="#5f7d95"
       d="m 273.97513,239.42795 c -1.18765,0 -2.22446,0.30168 -2.80887,0.88622 l -106.32214,67.12608 c -2.37527,1.18789 -2.95967,2.97918 -2.95967,5.93954 0,1.79126 1.18764,4.16708 2.95967,5.93951 l 105.13449,65.95703 c 1.18765,0.58454 2.37531,0.58454 4.14734,0.58454 1.18762,0 1.79089,0 3.56293,-0.58454 L 384.01102,319.3193 c 1.77203,-1.77243 2.95965,-2.96032 2.95965,-5.93951 0,-2.37582 -1.77203,-4.75165 -2.95965,-5.93954 L 277.68888,240.31417 c -1.18765,-0.58454 -2.52609,-0.88622 -3.71375,-0.88622 z"
       fill-rule="evenodd"
       id="path11"
       style="fill:#f68634;fill-opacity:1" />
    <path
       fill="#5f7d95"
       d="m 174.34525,381.10925 -10.08553,6.54291 c -2.37527,1.18789 -2.97851,2.96032 -2.97851,5.93951 0,2.37583 1.18764,4.14826 2.97851,5.93955 l 106.3033,66.5227 c 0.60325,1.1879 1.7909,1.1879 3.56293,1.1879 1.18762,0 2.37528,0 3.56293,-1.1879 l 106.32214,-66.5227 c 2.37527,-1.79129 2.95965,-2.97919 2.95965,-5.93955 0,-2.37579 -1.77203,-4.75162 -2.95965,-5.93951 l -10.68878,-6.54291 -95.63336,59.39526 c -0.58441,0.6034 -2.37531,0.6034 -3.56293,0.6034 -1.77203,0 -2.37528,0 -3.56293,-0.6034 z"
       fill-rule="evenodd"
       id="path13"
       style="fill:#f68634;fill-opacity:1" />
    <path
       fill="#5f7d95"
       d="m 174.34525,341.305 -10.08553,7.12741 c -2.37527,1.18793 -2.97851,2.97922 -2.97851,5.93955 0,2.97918 1.18764,4.16708 2.97851,5.93951 l 106.3033,65.9382 c 0.60325,0.60336 1.7909,0.60336 3.56293,0.60336 1.18762,0 2.37528,0 3.56293,-0.60336 l 106.32214,-65.9382 c 2.37527,-1.77243 2.95965,-2.96033 2.95965,-5.93951 0,-2.96033 -1.77203,-4.75162 -2.95965,-5.93955 l -10.68878,-7.12741 -95.63336,60.60202 c -0.58441,0.58453 -2.37531,0.58453 -3.56293,0.58453 -1.77203,0 -2.37528,0 -3.56293,-0.58453 z"
       fill-rule="evenodd"
       id="path15"
       style="fill:#f68634;fill-opacity:1" />
  </g>
</svg>
